<svg xmlns="http://www.w3.org/2000/svg" width="512" height="512" viewBox="0 0 512 512">
<g>
<path d="M 281.00 280.48 C260.50,283.62 242.63,280.90 224.12,271.81 C216.60,268.11 201.00,256.85 201.00,255.11 C201.00,253.72 333.62,122.00 335.00,122.02 C336.84,122.05 347.83,136.59 351.36,143.65 C359.35,159.65 361.51,169.14 361.46,188.00 C361.42,200.83 361.04,204.79 359.24,211.00 C354.35,227.94 351.98,233.21 346.22,239.95 C331.18,257.53 321.03,266.33 309.50,271.80 C297.90,277.29 293.97,278.49 281.00,280.48 Z" fill="rgb(42,139,233)"/>
<path d="M 281.00 280.48 C293.97,278.49 297.90,277.29 309.50,271.80 C321.03,266.33 331.18,257.53 346.22,239.95 C351.98,233.21 354.35,227.94 359.24,211.00 C361.04,204.79 361.42,200.83 361.46,188.00 C361.51,169.14 359.35,159.65 351.36,143.65 C347.83,136.59 336.84,122.05 335.00,122.02 C334.39,122.01 307.68,148.20 278.27,177.34 C279.82,175.79 281.39,174.22 283.00,172.61 C358.73,97.01 366.03,90.00 372.00,87.16 C403.45,72.19 438.90,93.74 439.18,128.00 C439.25,136.34 437.46,143.46 433.33,151.28 C431.32,155.09 418.84,168.39 387.04,200.58 C363.09,224.83 340.66,247.88 337.19,251.81 C329.41,260.61 321.02,267.09 310.36,272.54 C300.73,277.46 294.81,279.50 284.28,281.51 C270.15,284.22 250.88,283.00 237.40,278.57 C230.42,276.27 228.02,275.20 217.96,269.89 C213.59,267.58 203.06,259.12 201.59,256.74 C201.51,256.61 201.52,256.41 201.63,256.12 C204.63,259.44 217.50,268.56 224.12,271.81 C242.63,280.90 260.50,283.62 281.00,280.48 Z" fill="rgb(79,201,237)"/>
<path d="M 349.79 411.90 L 349.50 418.50 L 339.25 418.78 C331.48,419.00 328.96,418.76 328.85,417.78 C328.77,417.08 328.61,415.83 328.50,415.00 C328.39,414.17 328.23,411.65 328.15,409.40 L 328.00 405.30 L 318.36 404.62 C310.93,404.10 307.02,403.24 301.35,400.88 C288.79,395.65 284.00,387.74 284.00,372.26 C284.00,360.20 285.44,355.57 290.91,349.96 C297.01,343.72 304.53,340.86 316.50,340.24 C326.01,339.75 329.52,338.21 328.49,334.97 C327.49,331.82 330.33,330.91 340.15,331.21 L 349.50 331.50 L 349.60 334.85 C349.65,336.69 350.33,338.60 351.10,339.08 C351.87,339.57 355.71,339.98 359.64,339.98 C369.63,340.01 380.24,343.37 386.03,348.35 C393.21,354.53 396.27,367.57 393.58,380.57 C390.38,396.07 380.02,403.18 358.45,404.70 L 350.08 405.29 ZM 134.80 418.15 C134.08,418.60 108.86,418.98 78.75,418.98 L 24.00 419.00 L 24.00 341.25 L 27.12 340.62 C31.05,339.84 41.34,339.81 43.34,340.58 C44.63,341.07 44.86,345.35 44.95,370.29 C45.04,391.98 45.38,399.62 46.28,400.20 C48.31,401.49 67.45,401.15 68.80,399.80 C69.68,398.92 70.00,390.89 70.00,369.91 C70.00,344.67 70.19,341.14 71.58,340.61 C73.64,339.82 87.36,339.82 89.42,340.61 C90.81,341.14 91.00,344.67 91.00,369.91 C91.00,390.89 91.32,398.92 92.20,399.80 C93.71,401.31 112.31,401.44 115.07,399.96 C116.91,398.98 117.00,397.58 117.00,370.08 L 117.00 341.23 L 122.55 340.54 C128.13,339.84 135.99,340.60 136.01,341.84 C136.01,342.20 136.03,359.34 136.06,379.91 C136.09,409.52 135.83,417.49 134.80,418.15 ZM 196.20 412.75 L 190.76 419.00 L 170.00 419.00 L 170.00 380.11 C170.00,345.56 170.18,341.15 171.58,340.61 C173.64,339.82 180.50,339.83 186.36,340.64 L 191.00 341.27 L 191.00 364.64 C191.00,377.49 191.39,388.00 191.86,388.00 C192.72,388.00 203.00,375.92 218.74,356.42 C228.20,344.70 230.79,341.33 234.07,340.38 C235.40,339.99 236.83,340.00 238.88,340.01 C239.12,340.01 239.38,340.01 239.65,340.01 C243.42,340.02 248.19,340.30 250.26,340.64 L 254.02 341.27 L 253.76 379.88 L 253.50 418.50 L 232.50 418.50 L 232.23 395.25 C232.02,376.94 231.69,372.00 230.66,372.00 C229.52,372.00 221.39,381.56 206.08,400.91 C203.64,403.98 199.20,409.31 196.20,412.75 ZM 470.77 389.27 L 470.50 418.50 L 460.95 418.78 C455.70,418.94 451.09,418.75 450.70,418.37 C450.32,417.98 450.00,404.97 450.00,389.46 C450.00,367.34 449.72,361.01 448.68,360.15 C447.91,359.51 441.62,358.94 433.43,358.78 L 419.50 358.50 L 419.50 340.50 L 459.17 340.50 C480.98,340.50 499.14,340.81 499.52,341.18 C500.30,341.97 500.46,356.88 499.69,357.64 C499.41,357.93 493.85,358.37 487.34,358.64 C480.83,358.90 474.49,359.33 473.27,359.58 L 471.03 360.03 ZM 350.67 385.33 C351.70,386.36 359.06,386.11 363.42,384.90 C365.58,384.30 368.62,382.54 370.17,380.98 C372.70,378.46 373.00,377.46 373.00,371.63 C373.00,365.37 372.86,364.99 369.57,362.49 C366.18,359.90 354.32,357.28 351.29,358.44 C350.33,358.81 350.00,362.23 350.00,371.80 C350.00,378.88 350.30,384.97 350.67,385.33 ZM 314.75 385.31 C316.26,385.55 319.75,385.69 322.50,385.62 L 327.50 385.50 L 327.50 358.50 L 322.50 358.73 C314.13,359.11 311.28,359.94 308.07,362.93 C305.28,365.54 305.00,366.37 305.00,372.03 C305.00,377.86 305.23,378.48 308.50,381.57 C310.43,383.38 313.24,385.06 314.75,385.31 Z" fill="rgb(231,75,56)"/>
<path d="M 369.95 88.30 C363.68,92.29 350.62,105.11 283.00,172.61 C281.39,174.22 279.82,175.79 278.27,177.34 C241.72,213.56 201.00,254.34 201.00,255.11 C201.00,255.32 201.22,255.67 201.63,256.12 C201.52,256.41 201.51,256.61 201.59,256.74 C202.32,257.93 205.30,260.62 208.65,263.31 C203.23,259.14 198.55,255.00 199.73,255.00 C200.11,255.00 198.38,252.86 195.89,250.25 C187.07,241.01 178.86,225.36 175.57,211.50 C170.24,189.09 172.88,164.28 182.51,146.19 C183.88,143.62 185.00,140.79 185.00,139.91 C185.00,137.78 195.92,125.07 204.57,117.15 C220.42,102.63 240.57,94.55 264.00,93.32 C278.31,92.58 296.71,96.39 309.50,102.74 C314.80,105.38 328.51,114.88 331.48,117.98 L 334.35 120.98 L 349.93 105.67 C360.70,95.08 365.49,90.87 369.95,88.30 ZM 134.80 418.15 C135.83,417.49 136.09,409.52 136.06,379.91 C136.03,359.34 136.01,342.20 136.01,341.84 C136.00,340.80 130.44,340.09 125.36,340.31 C128.39,340.09 131.73,340.02 133.50,340.17 L 137.50 340.50 L 137.50 418.50 L 127.28 418.55 C131.85,418.43 134.57,418.29 134.80,418.15 ZM 499.52 341.18 C499.15,340.82 481.72,340.51 460.50,340.50 L 501.50 340.50 L 501.50 358.50 L 488.50 358.74 C485.48,358.80 482.52,358.89 480.01,359.01 C482.22,358.87 484.77,358.74 487.34,358.64 C493.85,358.37 499.41,357.93 499.69,357.64 C500.46,356.88 500.30,341.97 499.52,341.18 ZM 218.03 269.92 C224.60,273.39 227.89,275.04 231.35,276.42 C227.11,274.78 223.48,273.03 219.28,270.66 C218.89,270.44 218.47,270.19 218.03,269.92 ZM 120.75 340.76 L 117.00 341.23 L 117.00 341.16 ZM 27.87 419.00 L 24.00 419.02 L 24.00 419.00 Z" fill="rgb(246,62,92)"/>
<path d="M 149.79 297.07 C143.59,299.05 131.61,299.54 125.45,298.07 C114.48,295.44 100.44,284.82 95.94,275.75 C87.92,259.58 87.91,245.60 95.92,230.00 C97.47,226.97 112.57,211.08 142.00,181.50 C165.18,158.21 186.79,136.06 191.30,130.98 C187.62,135.29 185.00,138.87 185.00,139.91 C185.00,140.79 183.88,143.62 182.51,146.19 C172.88,164.28 170.24,189.09 175.57,211.50 C178.86,225.36 187.07,241.01 195.89,250.25 C198.38,252.86 200.11,255.00 199.73,255.00 C199.44,255.00 199.51,255.26 199.87,255.72 L 185.75 269.55 C161.89,292.93 161.29,293.39 149.79,297.07 ZM 225.60 102.84 C237.10,97.13 249.68,94.07 264.00,93.32 C249.95,94.06 237.07,97.26 225.60,102.84 ZM 239.16 279.12 C247.31,281.55 257.29,282.87 266.90,282.94 C257.27,282.95 247.68,281.68 239.16,279.12 ZM 285.22 281.33 C293.34,279.73 298.73,278.06 305.51,274.91 C302.43,276.37 299.53,277.58 297.13,278.36 C293.34,279.60 289.34,280.59 285.22,281.33 ZM 206.69 261.78 C207.33,262.28 207.98,262.79 208.65,263.31 C211.15,265.32 213.86,267.33 215.99,268.71 C214.37,267.68 212.80,266.61 211.28,265.49 C210.03,264.57 208.31,263.17 206.69,261.78 ZM 320.03 266.89 C323.23,264.76 326.23,262.46 329.09,259.94 C327.46,261.41 325.93,262.72 324.69,263.67 C323.34,264.70 321.76,265.79 320.03,266.89 ZM 192.13 130.02 C195.19,126.44 198.29,123.15 201.44,120.12 C198.23,123.28 194.93,126.81 192.13,130.02 ZM 218.03 269.92 C218.47,270.19 218.89,270.44 219.28,270.66 C220.66,271.44 221.97,272.15 223.27,272.81 C221.18,271.76 219.18,270.66 217.25,269.49 C217.50,269.64 217.74,269.77 217.96,269.89 Z" fill="rgb(254,157,2)"/>
<path d="M 0.00 256.00 L 0.00 0.00 L 256.00 0.00 L 512.00 0.00 L 512.00 256.00 L 512.00 512.00 L 256.00 512.00 L 0.00 512.00 L 0.00 256.00 ZM 137.50 379.50 L 137.50 340.50 L 133.50 340.17 C131.30,339.98 126.69,340.13 123.25,340.50 L 117.00 341.16 L 117.00 370.04 C117.00,397.58 116.91,398.98 115.07,399.96 C112.31,401.44 93.71,401.31 92.20,399.80 C91.32,398.92 91.00,390.89 91.00,369.91 C91.00,344.67 90.81,341.14 89.42,340.61 C87.36,339.82 73.64,339.82 71.58,340.61 C70.19,341.14 70.00,344.67 70.00,369.91 C70.00,390.89 69.68,398.92 68.80,399.80 C67.45,401.15 48.31,401.49 46.28,400.20 C45.38,399.62 45.04,391.98 44.95,370.29 C44.86,345.35 44.63,341.07 43.34,340.58 C41.34,339.81 31.05,339.84 27.12,340.62 L 24.00 341.25 L 24.00 380.13 L 24.00 419.02 L 80.75 418.76 L 137.50 418.50 L 137.50 379.50 ZM 196.20 412.75 C199.20,409.31 203.64,403.98 206.08,400.91 C221.39,381.56 229.52,372.00 230.66,372.00 C231.69,372.00 232.02,376.94 232.23,395.25 L 232.50 418.50 L 243.00 418.50 L 253.50 418.50 L 253.76 379.88 L 254.02 341.27 L 250.26 340.64 C248.19,340.30 243.42,340.02 239.65,340.01 C231.72,340.00 232.48,339.40 218.74,356.42 C203.00,375.92 192.72,388.00 191.86,388.00 C191.39,388.00 191.00,377.49 191.00,364.64 L 191.00 341.27 L 186.36 340.64 C180.50,339.83 173.64,339.82 171.58,340.61 C170.18,341.15 170.00,345.56 170.00,380.11 L 170.00 419.00 L 180.38 419.00 L 190.76 419.00 L 196.20 412.75 ZM 349.79 411.90 L 350.08 405.29 L 358.45 404.70 C380.02,403.18 390.38,396.07 393.58,380.57 C396.27,367.57 393.21,354.53 386.03,348.35 C380.24,343.37 369.63,340.01 359.64,339.98 C355.71,339.98 351.87,339.57 351.10,339.08 C350.33,338.60 349.65,336.69 349.60,334.85 L 349.50 331.50 L 340.15 331.21 C330.33,330.91 327.49,331.82 328.49,334.97 C329.52,338.21 326.01,339.75 316.50,340.24 C304.53,340.86 297.01,343.72 290.91,349.96 C285.44,355.57 284.00,360.20 284.00,372.26 C284.00,387.74 288.79,395.65 301.35,400.88 C307.02,403.24 310.93,404.10 318.36,404.62 L 328.00 405.30 L 328.15 409.40 C328.23,411.65 328.39,414.17 328.50,415.00 C328.61,415.83 328.77,417.08 328.85,417.78 C328.96,418.76 331.48,419.00 339.25,418.78 L 349.50 418.50 L 349.79 411.90 ZM 470.77 389.27 L 471.03 360.03 L 473.27 359.51 C474.49,359.22 481.35,358.88 488.50,358.74 L 501.50 358.50 L 501.50 349.50 L 501.50 340.50 L 460.50 340.50 L 419.50 340.50 L 419.50 349.50 L 419.50 358.50 L 433.43 358.78 C441.62,358.94 447.91,359.51 448.68,360.15 C449.72,361.01 450.00,367.34 450.00,389.46 C450.00,404.97 450.32,417.98 450.70,418.37 C451.09,418.75 455.70,418.94 460.95,418.78 L 470.50 418.50 L 470.77 389.27 ZM 149.79 297.07 C161.29,293.39 161.89,292.93 185.75,269.55 L 200.00 255.59 L 203.75 259.14 C205.81,261.10 209.20,263.95 211.28,265.49 C218.63,270.92 227.16,275.20 237.31,278.54 C255.34,284.47 278.67,284.40 297.13,278.36 C304.81,275.85 317.75,268.95 324.69,263.67 C328.09,261.07 333.71,255.74 337.19,251.81 C340.66,247.88 363.09,224.83 387.04,200.58 C418.84,168.39 431.32,155.09 433.33,151.28 C437.46,143.46 439.25,136.34 439.18,128.00 C438.90,93.72 403.24,72.08 372.00,87.22 C366.82,89.73 362.35,93.46 349.93,105.67 L 334.35 120.98 L 331.48 117.98 C328.51,114.88 314.80,105.38 309.50,102.74 C296.71,96.39 278.31,92.58 264.00,93.32 C234.44,94.87 212.31,106.25 191.75,130.47 C188.47,134.33 166.08,157.30 142.00,181.50 C112.57,211.08 97.47,226.97 95.92,230.00 C87.91,245.60 87.92,259.58 95.94,275.75 C100.44,284.82 114.48,295.44 125.45,298.07 C131.61,299.54 143.59,299.05 149.79,297.07 ZM 314.75 385.31 C313.24,385.06 310.43,383.38 308.50,381.57 C305.23,378.48 305.00,377.86 305.00,372.03 C305.00,366.37 305.28,365.54 308.07,362.93 C311.28,359.94 314.13,359.11 322.50,358.73 L 327.50 358.50 L 327.50 372.00 L 327.50 385.50 L 322.50 385.62 C319.75,385.69 316.26,385.55 314.75,385.31 ZM 350.67 385.33 C350.30,384.97 350.00,378.88 350.00,371.80 C350.00,362.23 350.33,358.81 351.29,358.44 C354.32,357.28 366.18,359.90 369.57,362.49 C372.86,364.99 373.00,365.37 373.00,371.63 C373.00,377.46 372.70,378.46 370.17,380.98 C368.62,382.54 365.58,384.30 363.42,384.90 C359.06,386.11 351.70,386.36 350.67,385.33 Z" fill="rgb(254,253,253)"/>
</g>
</svg>